<?xml version="1.0" standalone="no"?>
<!DOCTYPE svg PUBLIC "-//W3C//DTD SVG 20010904//EN"
 "http://www.w3.org/TR/2001/REC-SVG-20010904/DTD/svg10.dtd">
<svg version="1.0" xmlns="http://www.w3.org/2000/svg"
 width="700.000000pt" height="700.000000pt" viewBox="0 0 700.000000 700.000000"
 preserveAspectRatio="xMidYMid meet">
<metadata>
Created by potrace 1.11, written by Peter Selinger 2001-2013
</metadata>
<g transform="translate(0.000000,700.000000) scale(0.100000,-0.100000)"
fill="#000000" stroke="none">
<path d="M1748 5249 l-1748 -1749 878 -877 c482 -483 1270 -1271 1749 -1751
l873 -872 1750 1750 1750 1750 -1750 1750 c-962 962 -1751 1750 -1752 1749 -2
0 -789 -788 -1750 -1750z m2017 -363 c44 -5 95 -12 145 -21 8 -1 35 -6 60 -10
93 -15 290 -67 435 -116 175 -59 188 -65 178 -83 -5 -8 -67 -76 -139 -152 -72
-77 -148 -157 -169 -179 -106 -113 -256 -274 -303 -324 -66 -70 -258 -274
-302 -321 -18 -19 -63 -67 -102 -107 l-69 -72 -22 23 c-12 13 -77 81 -143 152
-67 71 -136 145 -154 164 -18 19 -85 91 -150 160 -65 69 -137 145 -160 170
-23 25 -70 74 -103 110 -34 36 -123 130 -197 209 -74 79 -141 150 -149 158 -9
9 -10 18 -4 24 24 24 404 144 523 166 14 2 44 8 67 14 62 13 168 29 248 36 39
3 72 7 74 9 5 5 378 -4 436 -10z m-1375 -1386 c0 -638 -2 -1160 -4 -1160 -8 0
-205 93 -300 142 -317 162 -694 427 -1005 706 -85 76 -311 303 -311 312 0 7
152 161 256 261 54 51 206 182 301 259 107 87 401 296 453 323 8 4 27 15 42
25 89 58 273 158 398 217 41 19 93 44 115 55 22 10 43 19 48 19 4 1 7 -521 7
-1159z m2338 1110 c129 -58 274 -135 422 -225 293 -177 574 -391 824 -625 89
-83 256 -253 256 -260 0 -9 -197 -206 -296 -297 -317 -290 -699 -559 -1042
-732 -108 -55 -269 -131 -278 -131 -2 0 -4 522 -4 1161 0 925 3 1160 13 1156
6 -3 54 -24 105 -47z m-1166 -1177 c29 -31 64 -68 78 -83 14 -14 84 -89 155
-165 145 -154 130 -139 311 -331 73 -76 146 -155 164 -174 18 -19 85 -91 150
-160 158 -167 170 -180 170 -185 0 -16 -333 -129 -440 -150 -8 -2 -33 -8 -55
-14 -22 -5 -53 -13 -70 -15 -16 -3 -41 -8 -55 -11 -14 -3 -41 -8 -60 -10 -19
-3 -44 -7 -55 -10 -59 -11 -199 -20 -345 -20 -261 0 -403 17 -660 80 -138 34
-415 126 -433 144 -7 7 12 33 55 78 37 37 81 84 98 103 18 19 66 71 108 115
167 177 243 257 368 390 73 77 146 156 164 175 142 153 284 300 291 300 4 0
32 -26 61 -57z"/>
</g>
</svg>
